<svg width="207" height="32" viewBox="0 0 207 32" fill="none" xmlns="http://www.w3.org/2000/svg">
<path d="M18.009 0.590999C21.4243 0.590999 24.2757 0.998332 26.563 1.813C28.8503 2.62766 30.6677 3.74 32.015 5.15C33.3937 6.52867 34.365 8.12667 34.929 9.944C35.5243 11.7613 35.822 13.6727 35.822 15.678C35.822 17.6833 35.493 19.6103 34.835 21.459C34.2083 23.3077 33.19 24.9527 31.78 26.394C30.4013 27.804 28.5683 28.932 26.281 29.778C24.025 30.5927 21.2677 31 18.009 31H0.619V0.590999H18.009ZM6.87 25.642H17.868C20.124 25.642 21.9883 25.3757 23.461 24.843C24.965 24.279 26.1557 23.527 27.033 22.587C27.9103 21.647 28.537 20.5817 28.913 19.391C29.289 18.2003 29.477 16.9627 29.477 15.678C29.477 14.3933 29.289 13.1713 28.913 12.012C28.537 10.8527 27.9103 9.81867 27.033 8.91C26.1557 8.00133 24.965 7.28067 23.461 6.748C21.9883 6.21533 20.124 5.949 17.868 5.949H6.87V25.642ZM54.8996 31.564C51.9543 31.564 49.3536 31.094 47.0976 30.154C44.8729 29.214 43.1339 27.851 41.8806 26.065C40.6273 24.2477 40.0006 22.023 40.0006 19.391C40.0006 16.759 40.6273 14.5343 41.8806 12.717C43.1339 10.8683 44.8729 9.474 47.0976 8.534C49.3536 7.594 51.9543 7.124 54.8996 7.124C57.8449 7.124 60.4143 7.594 62.6076 8.534C64.8323 9.474 66.5713 10.8683 67.8246 12.717C69.0779 14.5343 69.7046 16.759 69.7046 19.391C69.7046 22.023 69.0779 24.2477 67.8246 26.065C66.5713 27.851 64.8323 29.214 62.6076 30.154C60.4143 31.094 57.8449 31.564 54.8996 31.564ZM54.8996 26.864C56.5289 26.864 57.9859 26.582 59.2706 26.018C60.5866 25.4227 61.6206 24.5767 62.3726 23.48C63.1246 22.352 63.5006 20.989 63.5006 19.391C63.5006 17.793 63.1246 16.43 62.3726 15.302C61.6206 14.1427 60.6023 13.2653 59.3176 12.67C58.0329 12.0747 56.5603 11.777 54.8996 11.777C53.2703 11.777 51.7976 12.0747 50.4816 12.67C49.1656 13.2653 48.1159 14.127 47.3326 15.255C46.5806 16.383 46.2046 17.7617 46.2046 19.391C46.2046 20.989 46.5806 22.352 47.3326 23.48C48.0846 24.5767 49.1186 25.4227 50.4346 26.018C51.7506 26.582 53.2389 26.864 54.8996 26.864ZM74.2214 7.641H80.3314V31H74.2214V7.641ZM91.1884 7.124C92.6297 7.124 93.9614 7.312 95.1834 7.688C96.4054 8.064 97.4707 8.64367 98.3794 9.427C99.288 10.2103 99.993 11.213 100.494 12.435C100.996 13.6257 101.246 15.0513 101.246 16.712V31H95.1364V17.793C95.1364 15.819 94.6507 14.3777 93.6794 13.469C92.7394 12.529 91.1884 12.059 89.0264 12.059C87.397 12.059 85.9244 12.3723 84.6084 12.999C83.2924 13.6257 82.227 14.4247 81.4124 15.396C80.5977 16.336 80.1277 17.323 80.0024 18.357L79.9554 15.96C80.112 14.8633 80.4724 13.798 81.0364 12.764C81.6004 11.73 82.3524 10.79 83.2924 9.944C84.2637 9.06667 85.4074 8.37733 86.7234 7.876C88.0394 7.37467 89.5277 7.124 91.1884 7.124ZM111.539 7.124C112.981 7.124 114.312 7.312 115.534 7.688C116.756 8.064 117.822 8.64367 118.73 9.427C119.639 10.2103 120.344 11.213 120.845 12.435C121.378 13.6257 121.644 15.0513 121.644 16.712V31H115.534V17.793C115.534 15.819 115.049 14.3777 114.077 13.469C113.106 12.529 111.539 12.059 109.377 12.059C107.748 12.059 106.275 12.3723 104.959 12.999C103.643 13.6257 102.578 14.4247 101.763 15.396C100.949 16.336 100.494 17.323 100.4 18.357L100.306 15.819C100.463 14.785 100.839 13.751 101.434 12.717C102.03 11.683 102.813 10.743 103.784 9.897C104.756 9.051 105.884 8.37733 107.168 7.876C108.484 7.37467 109.941 7.124 111.539 7.124ZM148.479 23.245H154.401C154.15 24.843 153.477 26.2687 152.38 27.522C151.315 28.7753 149.858 29.7623 148.009 30.483C146.16 31.2037 143.904 31.564 141.241 31.564C138.264 31.564 135.632 31.094 133.345 30.154C131.058 29.1827 129.272 27.7883 127.987 25.971C126.702 24.1537 126.06 21.9603 126.06 19.391C126.06 16.8217 126.687 14.6283 127.94 12.811C129.193 10.9623 130.932 9.55233 133.157 8.581C135.413 7.60967 138.045 7.124 141.053 7.124C144.124 7.124 146.677 7.60967 148.714 8.581C150.751 9.55233 152.255 11.025 153.226 12.999C154.229 14.9417 154.652 17.4327 154.495 20.472H132.217C132.374 21.6627 132.812 22.7437 133.533 23.715C134.285 24.6863 135.288 25.454 136.541 26.018C137.826 26.582 139.345 26.864 141.1 26.864C143.043 26.864 144.656 26.535 145.941 25.877C147.257 25.1877 148.103 24.3103 148.479 23.245ZM140.771 11.777C138.515 11.777 136.682 12.2783 135.272 13.281C133.862 14.2523 132.953 15.4587 132.546 16.9H148.432C148.275 15.3333 147.523 14.0957 146.176 13.187C144.86 12.247 143.058 11.777 140.771 11.777ZM159.042 7.641H165.152V31H159.042V7.641ZM174.129 12.67C172.374 12.67 170.854 13.0147 169.57 13.704C168.285 14.362 167.251 15.1767 166.468 16.148C165.684 17.1193 165.136 18.0593 164.823 18.968L164.776 16.383C164.807 16.007 164.932 15.4587 165.152 14.738C165.371 13.986 165.7 13.187 166.139 12.341C166.577 11.4637 167.157 10.6333 167.878 9.85C168.598 9.03533 169.476 8.37733 170.51 7.876C171.544 7.37467 172.75 7.124 174.129 7.124V12.67ZM189.28 31.517C186.961 31.517 184.846 31.0157 182.935 30.013C181.055 28.979 179.551 27.5533 178.423 25.736C177.326 23.8873 176.778 21.7567 176.778 19.344C176.778 16.8687 177.342 14.7223 178.47 12.905C179.598 11.0877 181.118 9.67767 183.029 8.675C184.972 7.641 187.165 7.124 189.609 7.124C192.304 7.124 194.466 7.67233 196.095 8.769C197.756 9.83433 198.962 11.2913 199.714 13.14C200.466 14.9887 200.842 17.0567 200.842 19.344C200.842 20.7227 200.623 22.1327 200.184 23.574C199.745 24.984 199.072 26.3 198.163 27.522C197.254 28.7127 196.064 29.684 194.591 30.436C193.118 31.1567 191.348 31.517 189.28 31.517ZM191.254 26.817C193.103 26.817 194.701 26.5037 196.048 25.877C197.395 25.2503 198.429 24.373 199.15 23.245C199.871 22.117 200.231 20.8167 200.231 19.344C200.231 17.746 199.855 16.3987 199.103 15.302C198.382 14.174 197.348 13.328 196.001 12.764C194.685 12.1687 193.103 11.871 191.254 11.871C188.653 11.871 186.632 12.5603 185.191 13.939C183.75 15.2863 183.029 17.088 183.029 19.344C183.029 20.848 183.374 22.164 184.063 23.292C184.752 24.3887 185.708 25.2503 186.93 25.877C188.183 26.5037 189.625 26.817 191.254 26.817ZM200.231 7.641H206.341V31H200.654C200.654 31 200.607 30.7023 200.513 30.107C200.45 29.4803 200.388 28.697 200.325 27.757C200.262 26.817 200.231 25.8927 200.231 24.984V7.641Z" fill="#0040FF"/>
</svg>
